<svg xmlns="http://www.w3.org/2000/svg" xmlns:xlink="http://www.w3.org/1999/xlink" width="347" zoomAndPan="magnify" viewBox="0 0 260.25 237" height="316" preserveAspectRatio="xMidYMid meet" version="1.0"><defs><clipPath id="bd284c6838"><path d="M 16.71875 107.742188 L 240.085938 107.742188 L 240.085938 219.925781 L 16.71875 219.925781 Z M 16.71875 107.742188 " clip-rule="nonzero"/></clipPath><clipPath id="f10d0428c7"><path d="M 16.726562 9.804688 L 111.046875 9.804688 L 111.046875 107.742188 L 16.726562 107.742188 Z M 16.726562 9.804688 " clip-rule="nonzero"/></clipPath></defs><g clip-path="url(#bd284c6838)"><path fill="#fbeb78" d="M 16.578125 107.742188 L 240.085938 107.742188 L 240.085938 219.925781 L 16.578125 219.925781 Z M 16.578125 107.742188 " fill-opacity="1" fill-rule="nonzero"/></g><g clip-path="url(#f10d0428c7)"><path fill="#b9e185" d="M 16.726562 9.804688 L 111.046875 9.804688 L 111.046875 107.8125 L 16.726562 107.8125 Z M 16.726562 9.804688 " fill-opacity="1" fill-rule="nonzero"/></g><path fill="#000000" d="M 48.167969 56.351562 L 46.402344 53.386719 C 46.308594 53.386719 46.15625 53.386719 45.945312 53.386719 L 43.613281 53.386719 L 43.613281 56.351562 L 41.953125 56.351562 L 41.953125 46.570312 L 45.945312 46.570312 C 47.191406 46.570312 48.152344 46.871094 48.839844 47.453125 C 49.546875 48.019531 49.902344 48.832031 49.902344 49.890625 C 49.902344 50.695312 49.722656 51.363281 49.371094 51.902344 C 49.015625 52.449219 48.503906 52.839844 47.851562 53.070312 L 50.042969 56.351562 Z M 43.613281 51.902344 L 45.945312 51.902344 C 47.515625 51.902344 48.3125 51.257812 48.3125 49.960938 C 48.3125 48.6875 47.515625 48.054688 45.945312 48.054688 L 43.613281 48.054688 Z M 43.613281 51.902344 " fill-opacity="1" fill-rule="nonzero"/><path fill="#000000" d="M 63.210938 46.570312 L 63.210938 52.292969 C 63.210938 53.5625 62.832031 54.578125 62.082031 55.328125 C 61.320312 56.0625 60.28125 56.421875 58.9375 56.421875 C 57.613281 56.421875 56.578125 56.0625 55.828125 55.328125 C 55.070312 54.578125 54.699219 53.5625 54.699219 52.292969 L 54.699219 46.570312 L 56.359375 46.570312 L 56.359375 52.292969 C 56.359375 53.121094 56.589844 53.765625 57.066406 54.234375 C 57.535156 54.710938 58.167969 54.941406 58.972656 54.941406 C 59.765625 54.941406 60.394531 54.710938 60.84375 54.234375 C 61.3125 53.765625 61.550781 53.121094 61.550781 52.292969 L 61.550781 46.570312 Z M 63.210938 46.570312 " fill-opacity="1" fill-rule="nonzero"/><path fill="#000000" d="M 78.71875 56.351562 L 77.199219 56.351562 L 77.199219 49.042969 L 74.089844 55.328125 L 73.03125 55.328125 L 69.925781 49.042969 L 69.925781 56.351562 L 68.371094 56.351562 L 68.371094 46.570312 L 70.347656 46.570312 L 73.5625 53.070312 L 76.773438 46.570312 L 78.71875 46.570312 Z M 78.71875 56.351562 " fill-opacity="1" fill-rule="nonzero"/><path fill="#000000" d="M 84.121094 46.570312 L 85.777344 46.570312 L 85.777344 56.351562 L 84.121094 56.351562 Z M 84.121094 46.570312 " fill-opacity="1" fill-rule="nonzero"/><path fill="#db4a2b" d="M 115.132812 43.679688 L 208.757812 43.679688 L 208.757812 131.542969 L 115.132812 131.542969 Z M 115.132812 43.679688 " fill-opacity="0.4" fill-rule="nonzero"/><path fill="#db4a2b" d="M 95.617188 24.160156 L 189.242188 24.160156 L 189.242188 112.023438 L 95.617188 112.023438 Z M 95.617188 24.160156 " fill-opacity="1" fill-rule="nonzero"/><path fill="#000000" d="M 34.5625 195.835938 L 34.5625 71.988281 L 64.792969 71.988281 L 64.792969 90.421875 L 67.125 90.84375 C 70.136719 83.976562 74.066406 78.933594 78.921875 75.730469 C 83.792969 72.507812 89.710938 70.890625 96.683594 70.890625 C 103.695312 70.890625 109.046875 72.082031 112.71875 74.457031 L 107.457031 101.296875 L 105.089844 101.757812 C 103.058594 100.9375 101.109375 100.335938 99.226562 99.957031 C 97.363281 99.585938 95.097656 99.390625 92.410156 99.390625 C 83.722656 99.390625 77.09375 102.445312 72.527344 108.539062 C 67.957031 114.636719 65.675781 124.429688 65.675781 137.917969 L 65.675781 195.835938 Z M 34.5625 195.835938 " fill-opacity="1" fill-rule="nonzero"/><path fill="#000000" d="M 134.535156 57.191406 C 128.929688 57.191406 124.363281 55.484375 120.832031 52.070312 C 117.320312 48.660156 115.570312 44.253906 115.570312 38.859375 C 115.570312 33.5625 117.320312 29.210938 120.832031 25.792969 C 124.363281 22.386719 128.929688 20.675781 134.535156 20.675781 C 138.28125 20.675781 141.609375 21.46875 144.53125 23.039062 C 147.445312 24.621094 149.703125 26.773438 151.3125 29.503906 C 152.9375 32.238281 153.75 35.355469 153.75 38.859375 C 153.75 42.394531 152.9375 45.554688 151.3125 48.324219 C 149.703125 51.082031 147.445312 53.25 144.53125 54.824219 C 141.609375 56.402344 138.28125 57.191406 134.535156 57.191406 Z M 119.03125 195.835938 L 119.03125 71.988281 L 150.144531 71.988281 L 150.144531 195.835938 Z M 119.03125 195.835938 " fill-opacity="1" fill-rule="nonzero"/><path fill="#000000" d="M 186.917969 196.859375 C 182.9375 196.859375 179.433594 196.054688 176.394531 194.457031 C 173.375 192.835938 171.0625 190.601562 169.4375 187.75 C 167.832031 184.90625 167.035156 181.691406 167.035156 178.109375 C 167.035156 174.503906 167.832031 171.28125 169.4375 168.429688 C 171.0625 165.589844 173.375 163.347656 176.394531 161.722656 C 179.433594 160.078125 182.9375 159.25 186.917969 159.25 C 190.945312 159.25 194.476562 160.054688 197.515625 161.652344 C 200.550781 163.257812 202.863281 165.484375 204.472656 168.324219 C 206.070312 171.175781 206.871094 174.398438 206.871094 178 C 206.871094 183.464844 205.054688 187.976562 201.433594 191.527344 C 197.804688 195.085938 192.96875 196.859375 186.917969 196.859375 Z M 186.917969 196.859375 " fill-opacity="1" fill-rule="nonzero"/></svg>